# xmcd CD database file
#
# Track frame offsets:
#	150
#	20269
#	46808
#	64713
#	80195
#	113830
#	142173
#	168698
#	199298
#	216726
#	238354
#
# Disc length: 3557 seconds
#
# Revision: 0
# Processed by: cddbd v1.4PL0 Copyright (c) Steve Scherf et al.
# Submitted via: CDex 1.50
#
DISCID=af0de30b
DTITLE=Hans Christian - Phantoms
DYEAR=2003
DGENRE=New Age
TTITLE0=Backwards (with my eyes closed)
TTITLE1=Coyote's Dance
TTITLE2=Lindenflowers and Carnations
TTITLE3=Phantoms
TTITLE4=Atlantis
TTITLE5=Desperado
TTITLE6=Arabesque
TTITLE7=Scattered
TTITLE8=In the Pews
TTITLE9=The Sacrifice
TTITLE10=Aftermath
EXTD=YEAR: 2003
EXTT0=
EXTT1=
EXTT2=
EXTT3=
EXTT4=
EXTT5=
EXTT6=
EXTT7=
EXTT8=
EXTT9=
EXTT10=
PLAYORDER=
